<svg width="12" height="10" viewBox="0 0 12 10" fill="none" xmlns="http://www.w3.org/2000/svg">
<path d="M4.77598 0.760706L0.364523 8.12529C0.273569 8.2828 0.225443 8.46138 0.224934 8.64327C0.224425 8.82515 0.271549 9.004 0.36162 9.16202C0.451691 9.32004 0.581568 9.45172 0.738329 9.54396C0.895091 9.6362 1.07327 9.68579 1.25515 9.68779H10.0781C10.2599 9.68579 10.4381 9.6362 10.5949 9.54396C10.7516 9.45172 10.8815 9.32004 10.9716 9.16202C11.0617 9.004 11.1088 8.82515 11.1083 8.64327C11.1078 8.46138 11.0596 8.2828 10.9687 8.12529L6.55723 0.760706C6.46438 0.607637 6.33365 0.481081 6.17765 0.39325C6.02164 0.305419 5.84563 0.259277 5.66661 0.259277C5.48758 0.259277 5.31157 0.305419 5.15557 0.39325C4.99956 0.481081 4.86883 0.607637 4.77598 0.760706Z" fill="#8D8E98"/>
</svg>
