<svg width="14" height="14" viewBox="0 0 14 14" fill="none" xmlns="http://www.w3.org/2000/svg">
<g clip-path="url(#clip0_255_5265)">
<path d="M1.27097 2.83336V5.95836M1.27097 5.95836H4.39597M1.27097 5.95836L3.68763 3.68752C4.40686 2.96951 5.33995 2.5047 6.34632 2.36311C7.35269 2.22152 8.37781 2.41082 9.26723 2.90251C10.1567 3.39419 10.8622 4.16161 11.2775 5.08914C11.6929 6.01667 11.7955 7.05406 11.57 8.045C11.3445 9.03595 10.8031 9.92677 10.0273 10.5832C9.25147 11.2397 8.28333 11.6262 7.26873 11.6846C6.25413 11.743 5.24804 11.4701 4.40204 10.907C3.55604 10.3439 2.91596 9.52105 2.57826 8.56252" stroke="#F3EEFF" stroke-width="0.625" stroke-linecap="round" stroke-linejoin="round"/>
</g>
<defs>
<clipPath id="clip0_255_5265">
<rect width="12.5" height="12.5" fill="white" transform="translate(0.75013 0.75)"/>
</clipPath>
</defs>
</svg>
