<svg width="440" height="347" viewBox="0 0 440 347" fill="none" xmlns="http://www.w3.org/2000/svg">
<g clip-path="url(#clip0_486_218)">
<rect y="0.437256" width="440" height="346" rx="16" fill="#BAACF0"/>
<rect x="40" y="40.4507" width="360" height="473.081" rx="11.6757" fill="#080A1F"/>
<path d="M61.312 75.4507V64.4107H63.616V73.3707H68.384V75.4507H61.312ZM69.8696 65.6107V63.4507H72.1736V65.6107H69.8696ZM69.9176 75.4507V67.0027H72.1256V75.4507H69.9176ZM74.1453 74.7307V73.5307H77.8253C78.1879 73.5307 78.3693 73.3281 78.3693 72.9227C78.3693 72.5067 78.2199 72.2721 77.9213 72.2187L76.1933 71.9307C74.8279 71.6961 74.1453 70.9067 74.1453 69.5627C74.1453 67.8561 75.0093 67.0027 76.7373 67.0027H79.2173L80.1773 67.7227V68.9227H76.8653C76.5026 68.9227 76.3213 69.1254 76.3213 69.5307C76.3213 69.9574 76.4866 70.1974 76.8173 70.2507L78.5293 70.5387C79.8839 70.7627 80.5613 71.5414 80.5613 72.8747C80.5613 74.5921 79.6919 75.4507 77.9533 75.4507H75.1053L74.1453 74.7307ZM82.4943 72.8587V64.4107H84.7023V67.0027H87.4543V68.9227H84.7023V73.0187C84.7023 73.3601 84.8729 73.5307 85.2143 73.5307H87.6143V74.7307L86.6543 75.4507H85.0863C83.3583 75.4507 82.4943 74.5867 82.4943 72.8587ZM93.1833 72.7627V67.0987C93.1833 65.3067 94.0793 64.4107 95.8713 64.4107H100.143L101.215 65.2427V66.4907H95.9673C95.6473 66.4907 95.4873 66.6507 95.4873 66.9707V72.8907C95.4873 73.2107 95.6473 73.3707 95.9673 73.3707H101.215V74.6187L100.143 75.4507H95.8713C94.0793 75.4507 93.1833 74.5547 93.1833 72.7627ZM103.04 72.8587V69.5947C103.04 67.8667 103.904 67.0027 105.632 67.0027H107.872C109.6 67.0027 110.464 67.8667 110.464 69.5947V72.8587C110.464 74.5867 109.6 75.4507 107.872 75.4507H105.632C103.904 75.4507 103.04 74.5867 103.04 72.8587ZM105.248 73.0187C105.248 73.3601 105.418 73.5307 105.76 73.5307H107.744C108.085 73.5307 108.256 73.3601 108.256 73.0187V69.4347C108.256 69.0934 108.085 68.9227 107.744 68.9227H105.76C105.418 68.9227 105.248 69.0934 105.248 69.4347V73.0187ZM112.572 72.3787V63.6107H114.78V72.6027C114.78 73.2641 115.122 73.6321 115.804 73.7067V75.6107C113.65 75.6107 112.572 74.5334 112.572 72.3787ZM117.526 72.3787V63.6107H119.734V72.6027C119.734 73.2641 120.075 73.6321 120.758 73.7067V75.6107C118.603 75.6107 117.526 74.5334 117.526 72.3787ZM124.687 75.4507C122.959 75.4507 122.095 74.6027 122.095 72.9067C122.095 71.2107 122.959 70.3627 124.687 70.3627H126.895V69.4347C126.895 69.0934 126.724 68.9227 126.383 68.9227H122.991V67.7227L123.951 67.0027H126.511C128.239 67.0027 129.103 67.8667 129.103 69.5947V75.4507H124.687ZM124.303 73.0187C124.303 73.3601 124.473 73.5307 124.815 73.5307H126.895V72.0587H124.815C124.473 72.0587 124.303 72.2294 124.303 72.5707V73.0187ZM131.276 72.8587V64.4107H133.484V67.0027H136.236V68.9227H133.484V73.0187C133.484 73.3601 133.654 73.5307 133.996 73.5307H136.396V74.7307L135.436 75.4507H133.868C132.14 75.4507 131.276 74.5867 131.276 72.8587ZM137.993 72.8587V69.5947C137.993 67.8667 138.857 67.0027 140.585 67.0027H142.665C144.393 67.0027 145.257 67.8667 145.257 69.5947V72.0427H140.201V73.0187C140.201 73.3601 140.371 73.5307 140.713 73.5307H144.937V74.7307L143.977 75.4507H140.585C138.857 75.4507 137.993 74.5867 137.993 72.8587ZM140.201 70.3467H143.049V69.4347C143.049 69.0934 142.878 68.9227 142.537 68.9227H140.713C140.371 68.9227 140.201 69.0934 140.201 69.4347V70.3467ZM147.369 75.4507V68.0907C147.764 67.3654 148.521 67.0027 149.641 67.0027H151.369L152.329 67.7227V68.9227H150.233C149.913 68.9227 149.695 69.0027 149.577 69.1627V75.4507H147.369ZM155.89 75.4507C154.162 75.4507 153.298 74.6027 153.298 72.9067C153.298 71.2107 154.162 70.3627 155.89 70.3627H158.098V69.4347C158.098 69.0934 157.927 68.9227 157.586 68.9227H154.194V67.7227L155.154 67.0027H157.714C159.442 67.0027 160.306 67.8667 160.306 69.5947V75.4507H155.89ZM155.506 73.0187C155.506 73.3601 155.676 73.5307 156.018 73.5307H158.098V72.0587H156.018C155.676 72.0587 155.506 72.2294 155.506 72.5707V73.0187ZM162.479 72.3787V63.6107H164.687V72.6027C164.687 73.2641 165.028 73.6321 165.711 73.7067V75.6107C163.556 75.6107 162.479 74.5334 162.479 72.3787Z" fill="white"/>
<path d="M61.08 99.4507V91.1707H65.004C66.228 91.1707 66.84 91.7827 66.84 93.0067V94.5667C66.84 95.7907 66.228 96.4027 65.004 96.4027H62.088V99.4507H61.08ZM62.088 95.4907H65.016C65.56 95.4907 65.832 95.2187 65.832 94.6747V92.8987C65.832 92.3547 65.56 92.0827 65.016 92.0827H62.088V95.4907ZM68.4706 99.4507V93.9307C68.7506 93.4507 69.2706 93.2107 70.0306 93.2107H71.2306L71.7106 93.5707V94.0507H70.1626C69.8266 94.0507 69.5826 94.1427 69.4306 94.3267V99.4507H68.4706ZM72.8874 97.6507V95.0107C72.8874 93.8107 73.4874 93.2107 74.6874 93.2107H76.3674C77.5674 93.2107 78.1674 93.8107 78.1674 95.0107V97.6507C78.1674 98.8507 77.5674 99.4507 76.3674 99.4507H74.6874C73.4874 99.4507 72.8874 98.8507 72.8874 97.6507ZM73.8474 97.7707C73.8474 98.3307 74.1274 98.6107 74.6874 98.6107H76.3674C76.9274 98.6107 77.2074 98.3307 77.2074 97.7707V94.8907C77.2074 94.3307 76.9274 94.0507 76.3674 94.0507H74.6874C74.1274 94.0507 73.8474 94.3307 73.8474 94.8907V97.7707ZM79.8953 97.6507V95.0107C79.8953 93.8107 80.4953 93.2107 81.6953 93.2107H85.0553V100.051C85.0553 101.251 84.4553 101.851 83.2553 101.851H80.8553L80.3753 101.491V101.011H83.2553C83.8153 101.011 84.0953 100.731 84.0953 100.171V99.4507H81.6953C80.4953 99.4507 79.8953 98.8507 79.8953 97.6507ZM80.8553 97.7707C80.8553 98.3307 81.1353 98.6107 81.6953 98.6107H84.0953V94.0507H81.6953C81.1353 94.0507 80.8553 94.3307 80.8553 94.8907V97.7707ZM86.9276 99.4507V93.9307C87.2076 93.4507 87.7276 93.2107 88.4876 93.2107H89.6876L90.1676 93.5707V94.0507H88.6196C88.2836 94.0507 88.0396 94.1427 87.8876 94.3267V99.4507H86.9276ZM92.7993 99.4507C91.5913 99.4507 90.9873 98.8467 90.9873 97.6387C90.9873 96.4307 91.5913 95.8267 92.7993 95.8267H94.9953V94.8907C94.9953 94.3307 94.7153 94.0507 94.1553 94.0507H91.5873V93.5707L92.0673 93.2107H94.1553C95.3553 93.2107 95.9553 93.8107 95.9553 95.0107V99.4507H92.7993ZM91.9473 97.7707C91.9473 98.3307 92.2273 98.6107 92.7873 98.6107H94.9953V96.6067H92.7873C92.2273 96.6067 91.9473 96.8867 91.9473 97.4467V97.7707ZM97.8272 99.4507V93.2107H104.907C106.107 93.2107 106.707 93.8107 106.707 95.0107V99.4507H105.747V94.8907C105.747 94.3307 105.467 94.0507 104.907 94.0507H102.747V99.4507H101.787V94.0507H98.7872V99.4507H97.8272ZM111.588 99.4507V91.1707H112.596V98.5387H116.628V99.4507H111.588ZM117.782 97.6507V95.0107C117.782 93.8107 118.382 93.2107 119.582 93.2107H121.262C122.462 93.2107 123.062 93.8107 123.062 95.0107V97.6507C123.062 98.8507 122.462 99.4507 121.262 99.4507H119.582C118.382 99.4507 117.782 98.8507 117.782 97.6507ZM118.742 97.7707C118.742 98.3307 119.022 98.6107 119.582 98.6107H121.262C121.822 98.6107 122.102 98.3307 122.102 97.7707V94.8907C122.102 94.3307 121.822 94.0507 121.262 94.0507H119.582C119.022 94.0507 118.742 94.3307 118.742 94.8907V97.7707ZM126.362 99.4507C125.154 99.4507 124.55 98.8467 124.55 97.6387C124.55 96.4307 125.154 95.8267 126.362 95.8267H128.558V94.8907C128.558 94.3307 128.278 94.0507 127.718 94.0507H125.15V93.5707L125.63 93.2107H127.718C128.918 93.2107 129.518 93.8107 129.518 95.0107V99.4507H126.362ZM125.51 97.7707C125.51 98.3307 125.79 98.6107 126.35 98.6107H128.558V96.6067H126.35C125.79 96.6067 125.51 96.8867 125.51 97.4467V97.7707ZM131.39 99.4507V93.2107H134.75C135.95 93.2107 136.55 93.8107 136.55 95.0107V99.4507H135.59V94.8907C135.59 94.3307 135.31 94.0507 134.75 94.0507H132.35V99.4507H131.39ZM140.584 99.2347L143.296 91.1707H144.952L147.664 99.2347L147.52 99.4507H146.692L146.008 97.3627H142.24L141.556 99.4507H140.728L140.584 99.2347ZM142.54 96.4507H145.708L144.268 92.0827H143.98L142.54 96.4507ZM148.766 97.6507V95.0107C148.766 93.8107 149.366 93.2107 150.566 93.2107H153.926V100.051C153.926 101.251 153.326 101.851 152.126 101.851H149.726L149.246 101.491V101.011H152.126C152.686 101.011 152.966 100.731 152.966 100.171V99.4507H150.566C149.366 99.4507 148.766 98.8507 148.766 97.6507ZM149.726 97.7707C149.726 98.3307 150.006 98.6107 150.566 98.6107H152.966V94.0507H150.566C150.006 94.0507 149.726 94.3307 149.726 94.8907V97.7707ZM155.799 99.4507V93.9307C156.079 93.4507 156.599 93.2107 157.359 93.2107H158.559L159.039 93.5707V94.0507H157.491C157.155 94.0507 156.911 94.1427 156.759 94.3267V99.4507H155.799ZM160.216 97.6507V95.0107C160.216 93.8107 160.816 93.2107 162.016 93.2107H163.576C164.776 93.2107 165.376 93.8107 165.376 95.0107V96.7027H161.176V97.7707C161.176 98.3307 161.456 98.6107 162.016 98.6107H165.136V99.0907L164.656 99.4507H162.016C160.816 99.4507 160.216 98.8507 160.216 97.6507ZM161.176 95.9227H164.416V94.8907C164.416 94.3307 164.136 94.0507 163.576 94.0507H162.016C161.456 94.0507 161.176 94.3307 161.176 94.8907V95.9227ZM167.106 97.6507V95.0107C167.106 93.8107 167.706 93.2107 168.906 93.2107H170.466C171.666 93.2107 172.266 93.8107 172.266 95.0107V96.7027H168.066V97.7707C168.066 98.3307 168.346 98.6107 168.906 98.6107H172.026V99.0907L171.546 99.4507H168.906C167.706 99.4507 167.106 98.8507 167.106 97.6507ZM168.066 95.9227H171.306V94.8907C171.306 94.3307 171.026 94.0507 170.466 94.0507H168.906C168.346 94.0507 168.066 94.3307 168.066 94.8907V95.9227ZM174.093 99.4507V93.2107H181.173C182.373 93.2107 182.973 93.8107 182.973 95.0107V99.4507H182.013V94.8907C182.013 94.3307 181.733 94.0507 181.173 94.0507H179.013V99.4507H178.053V94.0507H175.053V99.4507H174.093ZM184.755 97.6507V95.0107C184.755 93.8107 185.355 93.2107 186.555 93.2107H188.115C189.315 93.2107 189.915 93.8107 189.915 95.0107V96.7027H185.715V97.7707C185.715 98.3307 185.995 98.6107 186.555 98.6107H189.675V99.0907L189.195 99.4507H186.555C185.355 99.4507 184.755 98.8507 184.755 97.6507ZM185.715 95.9227H188.955V94.8907C188.955 94.3307 188.675 94.0507 188.115 94.0507H186.555C185.995 94.0507 185.715 94.3307 185.715 94.8907V95.9227ZM191.741 99.4507V93.2107H195.101C196.301 93.2107 196.901 93.8107 196.901 95.0107V99.4507H195.941V94.8907C195.941 94.3307 195.661 94.0507 195.101 94.0507H192.701V99.4507H191.741ZM198.725 97.6507V91.1707H199.685V93.2107H201.965V94.0507H199.685V97.7707C199.685 98.3307 199.965 98.6107 200.525 98.6107H202.085V99.0907L201.605 99.4507H200.525C199.325 99.4507 198.725 98.8507 198.725 97.6507Z" fill="white" fill-opacity="0.6"/>
<path d="M368 77.9507L360 85.9502M368 85.9507L360 77.9513" stroke="white" stroke-width="0.8" stroke-linecap="round" stroke-linejoin="round"/>
<path d="M351.334 81.9508C351.334 75.9796 351.334 72.9941 353.189 71.1391C355.044 69.2841 358.029 69.2841 364 69.2841C369.971 69.2841 372.957 69.2841 374.812 71.1391C376.667 72.9941 376.667 75.9796 376.667 81.9508C376.667 87.9218 376.667 90.9074 374.812 92.7625C372.957 94.6174 369.971 94.6174 364 94.6174C358.029 94.6174 355.044 94.6174 353.189 92.7625C351.334 90.9074 351.334 87.9218 351.334 81.9508Z" stroke="white" stroke-width="0.8"/>
<path d="M61.0508 142.451V134.395H62.0316V142.451H61.0508ZM64.0126 142.451V136.379H67.2818C68.4494 136.379 69.0331 136.963 69.0331 138.131V142.451H68.0991V138.014C68.0991 137.469 67.8267 137.197 67.2818 137.197H64.9467V142.451H64.0126ZM73.0049 136.543L73.1216 136.379H73.8922L75.1299 141.633H75.2933L76.7761 136.379H77.8386L79.3214 141.633H79.4849L80.7342 136.379H81.4931L81.6099 136.543L80.1854 142.451H78.6909L77.3015 137.454L75.9238 142.451H74.4293L73.0049 136.543ZM82.8259 142.451V133.811H83.76V136.379H86.0951C87.2627 136.379 87.8465 136.963 87.8465 138.131V142.451H86.9124V138.014C86.9124 137.469 86.64 137.197 86.0951 137.197H83.76V142.451H82.8259ZM89.6205 135.247V134.149H90.6479V135.247H89.6205ZM89.6672 142.451V136.379H90.6012V142.451H89.6672ZM92.3787 140.699V138.131C92.3787 136.963 92.9624 136.379 94.13 136.379H96.4184L96.8855 136.73V137.197H94.13C93.5851 137.197 93.3127 137.469 93.3127 138.014V140.816C93.3127 141.361 93.5851 141.633 94.13 141.633H96.8855V142.1L96.4184 142.451H94.13C92.9624 142.451 92.3787 141.867 92.3787 140.699ZM98.3555 142.451V133.811H99.2896V136.379H101.625C102.792 136.379 103.376 136.963 103.376 138.131V142.451H102.442V138.014C102.442 137.469 102.17 137.197 101.625 137.197H99.2896V142.451H98.3555ZM108.002 140.664V136.181C108.002 134.99 108.597 134.395 109.788 134.395H113.081L113.606 134.803V135.282H109.776C109.247 135.282 108.982 135.547 108.982 136.076V140.769C108.982 141.299 109.247 141.563 109.776 141.563H113.606V142.042L113.081 142.451H109.788C108.597 142.451 108.002 141.855 108.002 140.664ZM115.081 140.699V136.379H116.015V140.816C116.015 141.361 116.288 141.633 116.833 141.633H119.168V136.379H120.102V142.451H116.833C115.665 142.451 115.081 141.867 115.081 140.699ZM121.922 142.451V137.08C122.195 136.613 122.701 136.379 123.44 136.379H124.608L125.075 136.73V137.197H123.569C123.242 137.197 123.004 137.286 122.856 137.465V142.451H121.922ZM126.267 142.451V137.08C126.539 136.613 127.045 136.379 127.784 136.379H128.952L129.419 136.73V137.197H127.913C127.586 137.197 127.349 137.286 127.201 137.465V142.451H126.267ZM130.564 140.699V138.131C130.564 136.963 131.148 136.379 132.315 136.379H133.833C135.001 136.379 135.585 136.963 135.585 138.131V139.777H131.498V140.816C131.498 141.361 131.771 141.633 132.315 141.633H135.351V142.1L134.884 142.451H132.315C131.148 142.451 130.564 141.867 130.564 140.699ZM131.498 139.018H134.651V138.014C134.651 137.469 134.378 137.197 133.833 137.197H132.315C131.771 137.197 131.498 137.469 131.498 138.014V139.018ZM137.362 142.451V136.379H140.631C141.799 136.379 142.382 136.963 142.382 138.131V142.451H141.448V138.014C141.448 137.469 141.176 137.197 140.631 137.197H138.296V142.451H137.362ZM144.11 140.699V138.131C144.11 136.963 144.693 136.379 145.861 136.379H148.149L148.616 136.73V137.197H145.861C145.316 137.197 145.044 137.469 145.044 138.014V140.816C145.044 141.361 145.316 141.633 145.861 141.633H148.616V142.1L148.149 142.451H145.861C144.693 142.451 144.11 141.867 144.11 140.699ZM149.386 136.543L149.491 136.379H150.297L152.071 141.633H152.305L154.08 136.379H154.885L154.99 136.543L152.141 144.786H151.336L151.231 144.622L152.013 142.451H151.429L149.386 136.543ZM160.393 142.451C159.218 142.451 158.63 141.863 158.63 140.688C158.63 139.512 159.218 138.925 160.393 138.925H162.53V138.014C162.53 137.469 162.258 137.197 161.713 137.197H159.214V136.73L159.681 136.379H161.713C162.88 136.379 163.464 136.963 163.464 138.131V142.451H160.393ZM159.564 140.816C159.564 141.361 159.837 141.633 160.382 141.633H162.53V139.684H160.382C159.837 139.684 159.564 139.956 159.564 140.501V140.816ZM165.239 142.451V137.08C165.511 136.613 166.017 136.379 166.757 136.379H167.924L168.391 136.73V137.197H166.885C166.558 137.197 166.321 137.286 166.173 137.465V142.451H165.239ZM169.536 140.699V138.131C169.536 136.963 170.12 136.379 171.288 136.379H172.805C173.973 136.379 174.557 136.963 174.557 138.131V139.777H170.47V140.816C170.47 141.361 170.743 141.633 171.288 141.633H174.323V142.1L173.856 142.451H171.288C170.12 142.451 169.536 141.867 169.536 140.699ZM170.47 139.018H173.623V138.014C173.623 137.469 173.35 137.197 172.805 137.197H171.288C170.743 137.197 170.47 137.469 170.47 138.014V139.018ZM178.438 136.543L178.543 136.379H179.349L181.124 141.633H181.357L183.132 136.379H183.938L184.043 136.543L181.194 144.786H180.388L180.283 144.622L181.065 142.451H180.482L178.438 136.543ZM185.111 140.699V138.131C185.111 136.963 185.695 136.379 186.863 136.379H188.497C189.665 136.379 190.249 136.963 190.249 138.131V140.699C190.249 141.867 189.665 142.451 188.497 142.451H186.863C185.695 142.451 185.111 141.867 185.111 140.699ZM186.045 140.816C186.045 141.361 186.318 141.633 186.863 141.633H188.497C189.042 141.633 189.315 141.361 189.315 140.816V138.014C189.315 137.469 189.042 137.197 188.497 137.197H186.863C186.318 137.197 186.045 137.469 186.045 138.014V140.816ZM191.976 140.699V136.379H192.911V140.816C192.911 141.361 193.183 141.633 193.728 141.633H196.063V136.379H196.997V142.451H193.728C192.56 142.451 191.976 141.867 191.976 140.699ZM201.015 136.543L201.132 136.379H201.903L203.14 141.633H203.304L204.787 136.379H205.849L207.332 141.633H207.495L208.745 136.379H209.504L209.62 136.543L208.196 142.451H206.702L205.312 137.454L203.934 142.451H202.44L201.015 136.543ZM210.79 135.247V134.149H211.817V135.247H210.79ZM210.837 142.451V136.379H211.771V142.451H210.837ZM213.595 140.793V133.811H214.529V140.886C214.529 141.423 214.801 141.707 215.346 141.739V142.544C214.178 142.544 213.595 141.96 213.595 140.793ZM216.628 140.793V133.811H217.562V140.886C217.562 141.423 217.834 141.707 218.379 141.739V142.544C217.211 142.544 216.628 141.96 216.628 140.793ZM219.661 135.247V134.149H220.688V135.247H219.661ZM219.707 142.451V136.379H220.641V142.451H219.707ZM222.512 142.451V136.379H225.781C226.949 136.379 227.533 136.963 227.533 138.131V142.451H226.599V138.014C226.599 137.469 226.326 137.197 225.781 137.197H223.446V142.451H222.512ZM229.26 140.699V138.131C229.26 136.963 229.844 136.379 231.011 136.379H234.281V143.035C234.281 144.202 233.697 144.786 232.529 144.786H230.194L229.727 144.436V143.969H232.529C233.074 143.969 233.346 143.696 233.346 143.151V142.451H231.011C229.844 142.451 229.26 141.867 229.26 140.699ZM230.194 140.816C230.194 141.361 230.466 141.633 231.011 141.633H233.346V137.197H231.011C230.466 137.197 230.194 137.469 230.194 138.014V140.816ZM238.907 140.699V134.395H239.841V136.379H242.06V137.197H239.841V140.816C239.841 141.361 240.114 141.633 240.659 141.633H242.176V142.1L241.709 142.451H240.659C239.491 142.451 238.907 141.867 238.907 140.699ZM243.433 140.699V138.131C243.433 136.963 244.017 136.379 245.184 136.379H246.819C247.986 136.379 248.57 136.963 248.57 138.131V140.699C248.57 141.867 247.986 142.451 246.819 142.451H245.184C244.017 142.451 243.433 141.867 243.433 140.699ZM244.367 140.816C244.367 141.361 244.639 141.633 245.184 141.633H246.819C247.364 141.633 247.636 141.361 247.636 140.816V138.014C247.636 137.469 247.364 137.197 246.819 137.197H245.184C244.639 137.197 244.367 137.469 244.367 138.014V140.816ZM254.586 142.451C253.41 142.451 252.823 141.863 252.823 140.688C252.823 139.512 253.41 138.925 254.586 138.925H256.722V138.014C256.722 137.469 256.45 137.197 255.905 137.197H253.406V136.73L253.873 136.379H255.905C257.072 136.379 257.656 136.963 257.656 138.131V142.451H254.586ZM253.757 140.816C253.757 141.361 254.029 141.633 254.574 141.633H256.722V139.684H254.574C254.029 139.684 253.757 139.956 253.757 140.501V140.816ZM259.384 140.699V138.131C259.384 136.963 259.968 136.379 261.136 136.379H263.424L263.891 136.73V137.197H261.136C260.591 137.197 260.318 137.469 260.318 138.014V140.816C260.318 141.361 260.591 141.633 261.136 141.633H263.891V142.1L263.424 142.451H261.136C259.968 142.451 259.384 141.867 259.384 140.699ZM265.268 140.699V138.131C265.268 136.963 265.851 136.379 267.019 136.379H269.307L269.774 136.73V137.197H267.019C266.474 137.197 266.202 137.469 266.202 138.014V140.816C266.202 141.361 266.474 141.633 267.019 141.633H269.774V142.1L269.307 142.451H267.019C265.851 142.451 265.268 141.867 265.268 140.699ZM271.151 140.699V138.131C271.151 136.963 271.735 136.379 272.902 136.379H274.42C275.588 136.379 276.172 136.963 276.172 138.131V139.777H272.085V140.816C272.085 141.361 272.358 141.633 272.902 141.633H275.938V142.1L275.471 142.451H272.902C271.735 142.451 271.151 141.867 271.151 140.699ZM272.085 139.018H275.238V138.014C275.238 137.469 274.965 137.197 274.42 137.197H272.902C272.358 137.197 272.085 137.469 272.085 138.014V139.018ZM277.949 144.786V136.379H281.218C282.386 136.379 282.969 136.963 282.969 138.131V140.699C282.969 141.867 282.386 142.451 281.218 142.451H278.883V144.786H277.949ZM278.883 141.633H281.218C281.763 141.633 282.035 141.361 282.035 140.816V138.014C282.035 137.469 281.763 137.197 281.218 137.197H278.883V141.633ZM284.698 140.699V134.395H285.632V136.379H287.85V137.197H285.632V140.816C285.632 141.361 285.904 141.633 286.449 141.633H287.967V142.1L287.5 142.451H286.449C285.282 142.451 284.698 141.867 284.698 140.699ZM292.075 140.793V133.811H293.009V140.886C293.009 141.423 293.281 141.707 293.826 141.739V142.544C292.659 142.544 292.075 141.96 292.075 140.793ZM295.061 140.699V138.131C295.061 136.963 295.645 136.379 296.812 136.379H298.447C299.615 136.379 300.198 136.963 300.198 138.131V140.699C300.198 141.867 299.615 142.451 298.447 142.451H296.812C295.645 142.451 295.061 141.867 295.061 140.699ZM295.995 140.816C295.995 141.361 296.268 141.633 296.812 141.633H298.447C298.992 141.633 299.264 141.361 299.264 140.816V138.014C299.264 137.469 298.992 137.197 298.447 137.197H296.812C296.268 137.197 295.995 137.469 295.995 138.014V140.816ZM303.409 142.451C302.234 142.451 301.646 141.863 301.646 140.688C301.646 139.512 302.234 138.925 303.409 138.925H305.546V138.014C305.546 137.469 305.273 137.197 304.728 137.197H302.23V136.73L302.697 136.379H304.728C305.896 136.379 306.48 136.963 306.48 138.131V142.451H303.409ZM302.58 140.816C302.58 141.361 302.852 141.633 303.397 141.633H305.546V139.684H303.397C302.852 139.684 302.58 139.956 302.58 140.501V140.816ZM308.301 142.451V136.379H311.57C312.738 136.379 313.322 136.963 313.322 138.131V142.451H312.388V138.014C312.388 137.469 312.115 137.197 311.57 137.197H309.235V142.451H308.301Z" fill="white" fill-opacity="0.6"/>
<rect x="59.5135" y="153.343" width="320.973" height="40.973" rx="8.48649" stroke="#7F64EB" stroke-width="0.972973"/>
<path d="M76.276 171.46L76.42 171.268H77.38L78.568 176.512H78.712L80.128 171.268H81.436L82.852 176.512H82.996L84.184 171.268H85.144L85.276 171.46L83.872 177.532H82.06L80.776 172.624L79.504 177.532H77.692L76.276 171.46ZM86.6185 177.532V169.252H92.0905V170.356H87.8305V172.66H91.7305V173.764H87.8305V176.428H92.0905V177.532H86.6185ZM92.9755 170.356V169.252H99.5755V170.356H96.8875V177.532H95.6635V170.356H92.9755ZM100.915 177.532V169.252H102.127V172.66H106.015V169.252H107.227V177.532H106.015V173.764H102.127V177.532H100.915Z" fill="white"/>
<path d="M352 171.829L356 175.829L360 171.829" stroke="white" stroke-width="1.33333" stroke-linecap="round" stroke-linejoin="round"/>
<path d="M60.2335 220.619L62.8722 212.773H64.4835L67.1222 220.619L66.9821 220.829H66.1764L65.5109 218.798H61.8448L61.1792 220.829H60.3736L60.2335 220.619ZM62.1366 217.91H65.219L63.8179 213.66H63.5377L62.1366 217.91ZM68.2884 220.829V214.758H75.177C76.3446 214.758 76.9284 215.342 76.9284 216.509V220.829H75.9943V216.392C75.9943 215.848 75.7219 215.575 75.177 215.575H73.0754V220.829H72.1413V215.575H69.2224V220.829H68.2884ZM78.662 219.078V216.509C78.662 215.342 79.2458 214.758 80.4134 214.758H82.048C83.2155 214.758 83.7993 215.342 83.7993 216.509V219.078C83.7993 220.245 83.2155 220.829 82.048 220.829H80.4134C79.2458 220.829 78.662 220.245 78.662 219.078ZM79.5961 219.195C79.5961 219.739 79.8685 220.012 80.4134 220.012H82.048C82.5928 220.012 82.8653 219.739 82.8653 219.195V216.392C82.8653 215.848 82.5928 215.575 82.048 215.575H80.4134C79.8685 215.575 79.5961 215.848 79.5961 216.392V219.195ZM85.5271 219.078V214.758H86.4612V219.195C86.4612 219.739 86.7336 220.012 87.2785 220.012H89.6136V214.758H90.5477V220.829H87.2785C86.1109 220.829 85.5271 220.245 85.5271 219.078ZM92.4151 220.829V214.758H95.6842C96.8518 214.758 97.4356 215.342 97.4356 216.509V220.829H96.5015V216.392C96.5015 215.848 96.2291 215.575 95.6842 215.575H93.3491V220.829H92.4151ZM99.2096 219.078V212.773H100.144V214.758H102.362V215.575H100.144V219.195C100.144 219.739 100.416 220.012 100.961 220.012H102.479V220.479L102.012 220.829H100.961C99.7934 220.829 99.2096 220.245 99.2096 219.078Z" fill="white" fill-opacity="0.6"/>
<rect x="59.5135" y="231.721" width="320.973" height="40.973" rx="8.48649" stroke="#7F64EB" stroke-width="0.972973"/>
<path d="M76.72 254.014V249.526C76.72 248.262 77.352 247.63 78.616 247.63H80.32C81.584 247.63 82.216 248.262 82.216 249.526V254.014C82.216 255.278 81.584 255.91 80.32 255.91H78.616C77.352 255.91 76.72 255.278 76.72 254.014ZM77.944 254.134C77.944 254.582 78.172 254.806 78.628 254.806H80.308C80.764 254.806 80.992 254.582 80.992 254.134V249.406C80.992 248.958 80.764 248.734 80.308 248.734H78.628C78.172 248.734 77.944 248.958 77.944 249.406V254.134ZM83.8615 255.91V254.494H85.2055V255.91H83.8615ZM86.8333 254.014V249.526C86.8333 248.262 87.4653 247.63 88.7293 247.63H90.4333C91.6973 247.63 92.3293 248.262 92.3293 249.526V254.014C92.3293 255.278 91.6973 255.91 90.4333 255.91H88.7293C87.4653 255.91 86.8333 255.278 86.8333 254.014ZM88.0573 254.134C88.0573 254.582 88.2853 254.806 88.7413 254.806H90.4213C90.8773 254.806 91.1053 254.582 91.1053 254.134V249.406C91.1053 248.958 90.8773 248.734 90.4213 248.734H88.7413C88.2853 248.734 88.0573 248.958 88.0573 249.406V254.134ZM93.7708 254.014V249.526C93.7708 248.262 94.4028 247.63 95.6668 247.63H97.3708C98.6348 247.63 99.2668 248.262 99.2668 249.526V254.014C99.2668 255.278 98.6348 255.91 97.3708 255.91H95.6668C94.4028 255.91 93.7708 255.278 93.7708 254.014ZM94.9948 254.134C94.9948 254.582 95.2228 254.806 95.6788 254.806H97.3588C97.8148 254.806 98.0428 254.582 98.0428 254.134V249.406C98.0428 248.958 97.8148 248.734 97.3588 248.734H95.6788C95.2228 248.734 94.9948 248.958 94.9948 249.406V254.134ZM103.147 249.838L103.291 249.646H104.251L105.439 254.89H105.583L106.999 249.646H108.307L109.723 254.89H109.867L111.055 249.646H112.015L112.147 249.838L110.743 255.91H108.931L107.647 251.002L106.375 255.91H104.563L103.147 249.838ZM113.49 255.91V247.63H118.962V248.734H114.702V251.038H118.602V252.142H114.702V254.806H118.962V255.91H113.49ZM119.847 248.734V247.63H126.447V248.734H123.759V255.91H122.535V248.734H119.847ZM127.786 255.91V247.63H128.998V251.038H132.886V247.63H134.098V255.91H132.886V252.142H128.998V255.91H127.786Z" fill="white"/>
<path d="M61.0508 299.208V291.151H62.0316V298.32H65.9546V299.208H61.0508ZM67.0776 297.456V294.888C67.0776 293.72 67.6613 293.136 68.8289 293.136H70.4635C71.6311 293.136 72.2149 293.72 72.2149 294.888V297.456C72.2149 298.624 71.6311 299.208 70.4635 299.208H68.8289C67.6613 299.208 67.0776 298.624 67.0776 297.456ZM68.0116 297.573C68.0116 298.118 68.284 298.39 68.8289 298.39H70.4635C71.0084 298.39 71.2808 298.118 71.2808 297.573V294.771C71.2808 294.226 71.0084 293.953 70.4635 293.953H68.8289C68.284 293.953 68.0116 294.226 68.0116 294.771V297.573ZM75.4255 299.208C74.2501 299.208 73.6625 298.62 73.6625 297.444C73.6625 296.269 74.2501 295.681 75.4255 295.681H77.5621V294.771C77.5621 294.226 77.2897 293.953 76.7448 293.953H74.2462V293.486L74.7133 293.136H76.7448C77.9124 293.136 78.4962 293.72 78.4962 294.888V299.208H75.4255ZM74.5965 297.573C74.5965 298.118 74.8689 298.39 75.4138 298.39H77.5621V296.44H75.4138C74.8689 296.44 74.5965 296.713 74.5965 297.258V297.573ZM80.3175 299.208V293.136H83.5867C84.7543 293.136 85.338 293.72 85.338 294.888V299.208H84.404V294.771C84.404 294.226 84.1316 293.953 83.5867 293.953H81.2516V299.208H80.3175ZM90.0804 299.208V291.151H93.2328C95.1788 291.151 96.1517 292.124 96.1517 294.07V296.289C96.1517 298.235 95.1788 299.208 93.2328 299.208H90.0804ZM91.0611 298.32H93.2912C94.5444 298.32 95.171 297.694 95.171 296.44V293.918C95.171 292.665 94.5444 292.039 93.2912 292.039H91.0611V298.32ZM97.8527 297.456V293.136H98.7868V297.573C98.7868 298.118 99.0592 298.39 99.6041 298.39H101.939V293.136H102.873V299.208H99.6041C98.4365 299.208 97.8527 298.624 97.8527 297.456ZM104.694 299.208V293.837C104.966 293.37 105.472 293.136 106.212 293.136H107.379L107.846 293.486V293.953H106.34C106.013 293.953 105.776 294.043 105.628 294.222V299.208H104.694ZM110.407 299.208C109.232 299.208 108.644 298.62 108.644 297.444C108.644 296.269 109.232 295.681 110.407 295.681H112.544V294.771C112.544 294.226 112.271 293.953 111.726 293.953H109.228V293.486L109.695 293.136H111.726C112.894 293.136 113.478 293.72 113.478 294.888V299.208H110.407ZM109.578 297.573C109.578 298.118 109.85 298.39 110.395 298.39H112.544V296.44H110.395C109.85 296.44 109.578 296.713 109.578 297.258V297.573ZM115.252 297.456V291.151H116.186V293.136H118.405V293.953H116.186V297.573C116.186 298.118 116.459 298.39 117.004 298.39H118.521V298.857L118.054 299.208H117.004C115.836 299.208 115.252 298.624 115.252 297.456ZM119.824 292.004V290.906H120.852V292.004H119.824ZM119.871 299.208V293.136H120.805V299.208H119.871ZM122.583 297.456V294.888C122.583 293.72 123.166 293.136 124.334 293.136H125.969C127.136 293.136 127.72 293.72 127.72 294.888V297.456C127.72 298.624 127.136 299.208 125.969 299.208H124.334C123.166 299.208 122.583 298.624 122.583 297.456ZM123.517 297.573C123.517 298.118 123.789 298.39 124.334 298.39H125.969C126.513 298.39 126.786 298.118 126.786 297.573V294.771C126.786 294.226 126.513 293.953 125.969 293.953H124.334C123.789 293.953 123.517 294.226 123.517 294.771V297.573ZM129.494 299.208V293.136H132.764C133.931 293.136 134.515 293.72 134.515 294.888V299.208H133.581V294.771C133.581 294.226 133.309 293.953 132.764 293.953H130.429V299.208H129.494Z" fill="white" fill-opacity="0.6"/>
<rect x="59.5135" y="310.099" width="320.973" height="40.973" rx="8.48649" stroke="#7F64EB" stroke-width="0.972973"/>
<path d="M76.84 333.809V333.185H80.308C80.764 333.185 80.992 332.961 80.992 332.513V331.205C80.992 330.749 80.764 330.521 80.308 330.521H77.728V329.417H80.308C80.764 329.417 80.992 329.189 80.992 328.733V327.785C80.992 327.337 80.764 327.113 80.308 327.113H76.96V326.489L77.584 326.009H80.32C81.584 326.009 82.216 326.641 82.216 327.905V328.745C82.216 329.065 82.116 329.325 81.916 329.525L81.496 329.945L81.916 330.365C82.116 330.565 82.216 330.825 82.216 331.145V332.393C82.216 333.657 81.584 334.289 80.32 334.289H77.464L76.84 333.809ZM83.6575 332.393V327.905C83.6575 326.641 84.2895 326.009 85.5535 326.009H87.2575C88.5215 326.009 89.1535 326.641 89.1535 327.905V332.393C89.1535 333.657 88.5215 334.289 87.2575 334.289H85.5535C84.2895 334.289 83.6575 333.657 83.6575 332.393ZM84.8815 332.513C84.8815 332.961 85.1095 333.185 85.5655 333.185H87.2455C87.7015 333.185 87.9295 332.961 87.9295 332.513V327.785C87.9295 327.337 87.7015 327.113 87.2455 327.113H85.5655C85.1095 327.113 84.8815 327.337 84.8815 327.785V332.513ZM93.8138 334.289V326.009H97.0298C99.0938 326.009 100.126 327.049 100.126 329.129V331.169C100.126 333.249 99.0938 334.289 97.0298 334.289H93.8138ZM95.0258 333.185H97.0898C98.3058 333.185 98.9138 332.577 98.9138 331.361V328.937C98.9138 327.721 98.3058 327.113 97.0898 327.113H95.0258V333.185ZM103.386 334.289C102.154 334.289 101.538 333.677 101.538 332.453C101.538 331.229 102.154 330.617 103.386 330.617H105.414V329.741C105.414 329.277 105.182 329.045 104.718 329.045H102.15V328.433L102.701 328.025H104.742C105.966 328.025 106.578 328.637 106.578 329.861V334.289H103.386ZM102.701 332.561C102.701 333.033 102.938 333.269 103.41 333.269H105.414V331.529H103.41C102.938 331.529 102.701 331.765 102.701 332.237V332.561ZM107.693 328.217L107.825 328.025H108.833L110.537 333.269H110.753L112.469 328.025H113.465L113.597 328.217L110.753 336.689H109.745L109.625 336.497L110.405 334.289H109.745L107.693 328.217ZM114.524 333.881V333.269H117.296C117.768 333.269 118.004 333.029 118.004 332.549C118.004 332.053 117.812 331.773 117.428 331.709L116.048 331.481C115.032 331.305 114.524 330.745 114.524 329.801C114.524 328.617 115.14 328.025 116.372 328.025H118.328L118.88 328.433V329.045H116.396C115.916 329.045 115.676 329.285 115.676 329.765C115.676 330.213 115.876 330.473 116.276 330.545L117.668 330.773C118.668 330.941 119.168 331.517 119.168 332.501C119.168 333.693 118.548 334.289 117.308 334.289H115.076L114.524 333.881Z" fill="white"/>
<path d="M352 328.586L356 332.586L360 328.586" stroke="white" stroke-width="1.33333" stroke-linecap="round" stroke-linejoin="round"/>
</g>
<defs>
<clipPath id="clip0_486_218">
<rect y="0.437256" width="440" height="346" rx="16" fill="white"/>
</clipPath>
</defs>
</svg>
