<?xml version="1.0" encoding="UTF-8"?>
<svg version="1.1" xmlns="http://www.w3.org/2000/svg" width="100" height="102">
<path d="M0 0 C0.66 0 1.32 0 2 0 C2.17390259 1.55110474 2.17390259 1.55110474 2.35131836 3.13354492 C2.78339483 6.98226118 3.21830305 10.83065312 3.65405273 14.67895508 C3.84199629 16.34227982 4.02917921 18.00569069 4.21557617 19.66918945 C4.48414781 22.06484847 4.75548348 24.46018098 5.02734375 26.85546875 C5.10967758 27.5952446 5.19201141 28.33502045 5.27684021 29.09721375 C5.69681547 32.77348402 6.2026735 36.38566004 7 40 C7.64324219 40.08040527 8.28648438 40.16081055 8.94921875 40.24365234 C15.12011719 41.01501465 15.12011719 41.01501465 21.29101562 41.78637695 C22.92586914 41.99073364 22.92586914 41.99073364 24.59375 42.19921875 C29.89583333 42.86197917 35.19791667 43.52473958 40.5 44.1875 C42.40265625 44.42533203 42.40265625 44.42533203 44.34375 44.66796875 C45.2203125 44.77753906 46.096875 44.88710938 47 45 C47 45.99 47 46.98 47 48 C45.44889526 48.17390259 45.44889526 48.17390259 43.86645508 48.35131836 C40.01773882 48.78339483 36.16934688 49.21830305 32.32104492 49.65405273 C30.65772018 49.84199629 28.99430931 50.02917921 27.33081055 50.21557617 C24.93515153 50.48414781 22.53981902 50.75548348 20.14453125 51.02734375 C19.4047554 51.10967758 18.66497955 51.19201141 17.90278625 51.27684021 C14.22651598 51.69681547 10.61433996 52.2026735 7 53 C6.91959473 53.64324219 6.83918945 54.28648438 6.75634766 54.94921875 C5.17089844 67.6328125 3.58544922 80.31640625 2 93 C1.34 93 0.68 93 0 93 C-0.17390259 91.44889526 -0.17390259 91.44889526 -0.35131836 89.86645508 C-0.78339483 86.01773882 -1.21830305 82.16934688 -1.65405273 78.32104492 C-1.84199629 76.65772018 -2.02917921 74.99430931 -2.21557617 73.33081055 C-2.48414781 70.93515153 -2.75548348 68.53981902 -3.02734375 66.14453125 C-3.10967758 65.4047554 -3.19201141 64.66497955 -3.27684021 63.90278625 C-3.69681547 60.22651598 -4.2026735 56.61433996 -5 53 C-5.64324219 52.91959473 -6.28648438 52.83918945 -6.94921875 52.75634766 C-11.06315104 52.24210612 -15.17708333 51.72786458 -19.29101562 51.21362305 C-20.38091797 51.07738525 -21.47082031 50.94114746 -22.59375 50.80078125 C-27.89583333 50.13802083 -33.19791667 49.47526042 -38.5 48.8125 C-40.40265625 48.57466797 -40.40265625 48.57466797 -42.34375 48.33203125 C-43.2203125 48.22246094 -44.096875 48.11289062 -45 48 C-45 47.01 -45 46.02 -45 45 C-43.96593018 44.88406494 -42.93186035 44.76812988 -41.86645508 44.64868164 C-38.01773882 44.21660517 -34.16934688 43.78169695 -30.32104492 43.34594727 C-28.65772018 43.15800371 -26.99430931 42.97082079 -25.33081055 42.78442383 C-22.93515153 42.51585219 -20.53981902 42.24451652 -18.14453125 41.97265625 C-17.4047554 41.89032242 -16.66497955 41.80798859 -15.90278625 41.72315979 C-12.22651598 41.30318453 -8.61433996 40.7973265 -5 40 C-4.91959473 39.35675781 -4.83918945 38.71351562 -4.75634766 38.05078125 C-3.17089844 25.3671875 -1.58544922 12.68359375 0 0 Z " fill="#CC41B3" transform="translate(49,3)"/>
<path d="M0 0 C4.76367188 0.59545898 9.52734375 1.19091797 14.29101562 1.78637695 C15.38091797 1.92261475 16.47082031 2.05885254 17.59375 2.19921875 C22.89583333 2.86197917 28.19791667 3.52473958 33.5 4.1875 C34.7684375 4.34605469 36.036875 4.50460938 37.34375 4.66796875 C38.2203125 4.77753906 39.096875 4.88710938 40 5 C40 5.99 40 6.98 40 8 C37.47980028 8.33885038 34.95901484 8.67120335 32.4375 9 C31.38079102 9.14308594 31.38079102 9.14308594 30.30273438 9.2890625 C25.82632145 9.86666417 21.51338762 10.09489383 17 10 C20.00617269 6.99382731 22.82381598 7.40414684 27 7 C27 6.67 27 6.34 27 6 C25.87972412 5.88724731 25.87972412 5.88724731 24.73681641 5.7722168 C21.36457582 5.42480407 17.99495116 5.05643256 14.625 4.6875 C13.449375 4.56955078 12.27375 4.45160156 11.0625 4.33007812 C9.94101563 4.20439453 8.81953125 4.07871094 7.6640625 3.94921875 C6.62717285 3.83924561 5.5902832 3.72927246 4.52197266 3.6159668 C2 3 2 3 0 0 Z " fill="#D9A8D0" transform="translate(56,43)"/>
<path d="M0 0 C0 0.33 0 0.66 0 1 C-1.06541016 1.18175781 -1.06541016 1.18175781 -2.15234375 1.3671875 C-3.07144531 1.53476562 -3.99054687 1.70234375 -4.9375 1.875 C-5.85402344 2.03742187 -6.77054688 2.19984375 -7.71484375 2.3671875 C-8.46894531 2.57601562 -9.22304688 2.78484375 -10 3 C-10.33 3.66 -10.66 4.32 -11 5 C-9.576875 4.938125 -9.576875 4.938125 -8.125 4.875 C-5 5 -5 5 -3 7 C-5.87526069 6.8583467 -8.75013536 6.71181468 -11.625 6.5625 C-12.43324219 6.52318359 -13.24148437 6.48386719 -14.07421875 6.44335938 C-18.45150865 6.21203918 -22.68547281 5.83079083 -27 5 C-27 4.01 -27 3.02 -27 2 C-17.95960217 0.72958023 -9.15564771 -0.34915606 0 0 Z " fill="#D48DC7" transform="translate(31,46)"/>
</svg>
