<svg width="16" height="16" viewBox="0 0 16 16" fill="none" xmlns="http://www.w3.org/2000/svg">
<path d="M1.33325 3.99967C1.33325 2.7426 1.33325 2.11406 1.72378 1.72353C2.1143 1.33301 2.74284 1.33301 3.99992 1.33301C5.257 1.33301 5.88554 1.33301 6.27606 1.72353C6.66659 2.11406 6.66659 2.7426 6.66659 3.99967V5.33301C6.66659 6.59009 6.66659 7.21863 6.27606 7.60915C5.88554 7.99967 5.257 7.99967 3.99992 7.99967C2.74284 7.99967 2.1143 7.99967 1.72378 7.60915C1.33325 7.21863 1.33325 6.59009 1.33325 5.33301V3.99967Z" stroke="#F3EEFF"/>
<path d="M1.33325 12.666C1.33325 12.0448 1.33325 11.7341 1.43475 11.4891C1.57007 11.1624 1.82964 10.9028 2.15634 10.7675C2.40137 10.666 2.712 10.666 3.33325 10.666H4.66659C5.28784 10.666 5.59847 10.666 5.8435 10.7675C6.1702 10.9028 6.42977 11.1624 6.56509 11.4891C6.66659 11.7341 6.66659 12.0448 6.66659 12.666C6.66659 13.2873 6.66659 13.5979 6.56509 13.8429C6.42977 14.1696 6.1702 14.4292 5.8435 14.5645C5.59847 14.666 5.28784 14.666 4.66659 14.666H3.33325C2.712 14.666 2.40137 14.666 2.15634 14.5645C1.82964 14.4292 1.57007 14.1696 1.43475 13.8429C1.33325 13.5979 1.33325 13.2873 1.33325 12.666Z" stroke="#F3EEFF"/>
<path d="M9.33325 10.6667C9.33325 9.40959 9.33325 8.78105 9.72378 8.39052C10.1143 8 10.7428 8 11.9999 8C13.257 8 13.8855 8 14.2761 8.39052C14.6666 8.78105 14.6666 9.40959 14.6666 10.6667V12C14.6666 13.2571 14.6666 13.8856 14.2761 14.2761C13.8855 14.6667 13.257 14.6667 11.9999 14.6667C10.7428 14.6667 10.1143 14.6667 9.72378 14.2761C9.33325 13.8856 9.33325 13.2571 9.33325 12V10.6667Z" stroke="#F3EEFF"/>
<path d="M9.33325 3.33301C9.33325 2.71175 9.33325 2.40112 9.43475 2.1561C9.57007 1.82939 9.82964 1.56983 10.1563 1.4345C10.4014 1.33301 10.712 1.33301 11.3333 1.33301H12.6666C13.2878 1.33301 13.5985 1.33301 13.8435 1.4345C14.1702 1.56983 14.4298 1.82939 14.5651 2.1561C14.6666 2.40112 14.6666 2.71175 14.6666 3.33301C14.6666 3.95426 14.6666 4.26489 14.5651 4.50992C14.4298 4.83662 14.1702 5.09619 13.8435 5.23151C13.5985 5.33301 13.2878 5.33301 12.6666 5.33301H11.3333C10.712 5.33301 10.4014 5.33301 10.1563 5.23151C9.82964 5.09619 9.57007 4.83662 9.43475 4.50992C9.33325 4.26489 9.33325 3.95426 9.33325 3.33301Z" stroke="#F3EEFF"/>
</svg>
