<svg width="18" height="18" viewBox="0 0 18 18" fill="none" xmlns="http://www.w3.org/2000/svg">
<path fill-rule="evenodd" clip-rule="evenodd" d="M8.58342 0.666992C4.21116 0.666992 0.666748 4.2114 0.666748 8.58366C0.666748 12.9559 4.21116 16.5003 8.58342 16.5003C10.4694 16.5003 12.2013 15.8409 13.5612 14.7399L15.9108 17.0896C16.2363 17.415 16.7639 17.415 17.0893 17.0896C17.4148 16.7641 17.4148 16.2365 17.0893 15.9111L14.7397 13.5614C15.8406 12.2015 16.5001 10.4696 16.5001 8.58366C16.5001 4.2114 12.9557 0.666992 8.58342 0.666992ZM2.33341 8.58366C2.33341 5.13188 5.13164 2.33366 8.58342 2.33366C12.0352 2.33366 14.8334 5.13188 14.8334 8.58366C14.8334 12.0354 12.0352 14.8337 8.58342 14.8337C5.13164 14.8337 2.33341 12.0354 2.33341 8.58366Z" fill="#F3EEFF"/>
</svg>
